<svg xmlns="http://www.w3.org/2000/svg" version="1.1" xmlns:xlink="http://www.w3.org/1999/xlink" xmlns:svgjs="http://svgjs.dev/svgjs" width="1980" height="1080" preserveAspectRatio="none" viewBox="0 0 1980 1080"><g mask="url(&quot;#SvgjsMask1291&quot;)" fill="none"><path d="M2046 1080L0 1080 L0 580.07Q35.53 516.6, 99 552.13Q175.11 529.24, 198 605.34Q303.26 611.6, 297 716.86Q277.19 598.05, 396 578.24Q436.63 519.88, 495 560.51Q577.49 544, 594 626.48Q697.73 565.21, 759 668.94Q859.24 604.18, 924 704.42Q938.63 620.04, 1023 634.67Q1053.73 566.4, 1122 597.14Q1160.8 536.94, 1221 575.75Q1258.34 514.09, 1320 551.42Q1432.37 498.78, 1485 611.15Q1565.49 592.64, 1584 673.14Q1641.29 631.43, 1683 688.72Q1697.63 604.36, 1782 618.99Q1793.53 531.52, 1881 543.05Q1969.45 466.5, 2046 554.95z" fill="rgba(88, 28, 135, 1)"></path><path d="M2145 1080L0 1080 L0 836.55Q-3 734.55, 99 731.55Q173.72 641.27, 264 715.99Q416.58 703.57, 429 856.15Q482.48 744.63, 594 798.11Q694.01 733.13, 759 833.14Q807.7 716.84, 924 765.53Q961.55 638.08, 1089 675.63Q1194.54 616.17, 1254 721.72Q1359.35 728.07, 1353 833.42Q1409.06 790.48, 1452 846.54Q1466.48 762.02, 1551 776.51Q1649.95 710.46, 1716 809.42Q1808.27 736.69, 1881 828.96Q1939.86 788.82, 1980 847.67Q2028.47 731.14, 2145 779.62z" fill="rgba(30, 58, 138, 1)"></path><path d="M2046 1080L0 1080 L0 931.48Q23.65 790.13, 165 813.78Q222.61 772.39, 264 830Q369.37 770.37, 429 875.73Q546.14 827.88, 594 945.02Q682.88 868.9, 759 957.78Q791.85 825.63, 924 858.47Q967.88 803.36, 1023 847.24Q1098.8 824.04, 1122 899.84Q1210.13 822.97, 1287 911.1Q1400.77 859.87, 1452 973.64Q1469.26 825.9, 1617 843.16Q1659.55 786.7, 1716 829.25Q1849.79 798.04, 1881 931.83Q1923.47 809.3, 2046 851.77z" fill="rgba(30, 64, 175, 1)"></path><path d="M2046 1080L0 1080 L0 947.3Q118.27 966.57, 99 1084.85Q205.03 1025.88, 264 1131.91Q286.94 989.86, 429 1012.8Q485.62 904.42, 594 961.04Q714.8 916.84, 759 1037.64Q872.07 985.71, 924 1098.78Q956.75 1032.53, 1023 1065.27Q1097.95 1041.22, 1122 1116.17Q1124.83 954, 1287 956.83Q1365.61 936.43, 1386 1015.04Q1451.98 982.02, 1485 1048Q1548.21 1012.21, 1584 1075.42Q1604.5 996.92, 1683 1017.42Q1756.91 926.34, 1848 1000.25Q1920.01 973.26, 1947 1045.27Q2019.33 1018.6, 2046 1090.92z" fill="rgba(255, 255, 255, 1)"></path></g><defs><mask id="SvgjsMask1291"><rect width="1980" height="1080" fill="#ffffff"></rect></mask></defs></svg>