<svg xmlns="http://www.w3.org/2000/svg" version="1.1" xmlns:xlink="http://www.w3.org/1999/xlink" xmlns:svgjs="http://svgjs.dev/svgjs" width="1440" height="560" preserveAspectRatio="none" viewBox="0 0 1440 560"><g mask="url(&quot;#SvgjsMask1210&quot;)" fill="none"><rect width="1440" height="560" x="0" y="0" fill="#0e2a47"></rect><use xlink:href="#SvgjsG1215" transform="translate(0, 0)" fill="#0f457b"></use><use xlink:href="#SvgjsG1215" transform="translate(0, 315)" fill="#0f457b"></use><use xlink:href="#SvgjsG1215" transform="translate(315, 0)" fill="#0f457b"></use><use xlink:href="#SvgjsG1215" transform="translate(315, 315)" fill="#0f457b"></use><use xlink:href="#SvgjsG1215" transform="translate(630, 0)" fill="#0f457b"></use><use xlink:href="#SvgjsG1215" transform="translate(630, 315)" fill="#0f457b"></use><use xlink:href="#SvgjsG1215" transform="translate(945, 0)" fill="#0f457b"></use><use xlink:href="#SvgjsG1215" transform="translate(945, 315)" fill="#0f457b"></use><use xlink:href="#SvgjsG1215" transform="translate(1260, 0)" fill="#0f457b"></use><use xlink:href="#SvgjsG1215" transform="translate(1260, 315)" fill="#0f457b"></use></g><defs><mask id="SvgjsMask1210"><rect width="1440" height="560" fill="#ffffff"></rect></mask><g id="SvgjsG1212"><path d="M15.233 9.431c0.295 0 0.569-0.239 0.61-0.532 0 0 0.056-0.411 0.056-0.899s-0.056-0.899-0.056-0.899c-0.041-0.292-0.315-0.531-0.61-0.53h-1.524c-0.295 0-0.602-0.188-0.681-0.418s-0.188-0.967 0.021-1.176l1.078-1.077c0.209-0.209 0.225-0.565 0.036-0.792l-1.268-1.268c-0.227-0.189-0.583-0.173-0.792 0.036l-1.078 1.077c-0.208 0.209-0.556 0.293-0.772 0.187s-0.822-0.552-0.821-0.847V0.767c0-0.295-0.239-0.569-0.531-0.61 0 0-0.411-0.057-0.9-0.056s-0.899 0.057-0.899 0.056c-0.293 0.04-0.532 0.315-0.532 0.61v1.524c0 0.295-0.188 0.601-0.418 0.681s-0.967 0.188-1.176-0.021l-1.078-1.078C3.689 1.665 3.333 1.649 3.107 1.837l-1.268 1.268c-0.189 0.227-0.173 0.583 0.036 0.792l1.077 1.078c0.209 0.209 0.293 0.556 0.187 0.772s-0.552 0.822-0.847 0.822H0.767c-0.295 0-0.569 0.239-0.61 0.531 0 0-0.057 0.411-0.056 0.899s0.057 0.899 0.056 0.9c0.04 0.293 0.315 0.532 0.61 0.532h1.525c0.295 0 0.601 0.188 0.681 0.417 0.079 0.23 0.188 0.967-0.02 1.176l-1.078 1.077C1.667 12.311 1.651 12.667 1.84 12.893l1.267 1.268c0.227 0.189 0.583 0.173 0.792-0.036l1.077-1.077c0.209-0.208 0.556-0.292 0.772-0.187s0.821 0.553 0.822 0.848v1.524c0 0.295 0.239 0.569 0.532 0.61 0 0 0.411 0.057 0.899 0.057s0.899-0.056 0.899-0.057c0.293-0.04 0.531-0.315 0.532-0.609v-1.524c0-0.295 0.188-0.602 0.418-0.681 0.23-0.079 0.967-0.188 1.176 0.021l1.077 1.077c0.209 0.209 0.565 0.225 0.792 0.036l1.268-1.267c0.189-0.227 0.173-0.583-0.036-0.792l-1.078-1.077c-0.209-0.209-0.293-0.557-0.186-0.773 0.106-0.216 0.552-0.822 0.847-0.822h1.525zM8 10.892c-1.597 0-2.891-1.294-2.891-2.892 0-1.596 1.295-2.891 2.891-2.891S10.892 6.404 10.892 8 9.597 10.892 8 10.892z"></path></g><g id="SvgjsG1211"><path d="M8.067-0.016c-3.304 0-5.982 2.678-5.982 5.982 0 5.588 5.982 10.054 5.982 10.054s5.982-4.466 5.982-10.054c0-3.304-2.678-5.982-5.982-5.982z m0 8.625c-1.46 0-2.643-1.183-2.643-2.643S6.607 3.323 8.067 3.323s2.643 1.183 2.643 2.643S9.527 8.609 8.067 8.609z"></path></g><g id="SvgjsG1214"><path d="M14.315 9.569L8.674 3.928l1.565-1.565L15.88 8.004z"></path><path d="M5.467 6.726h8.028V9.267H5.467z"></path><path d="M15.887 7.994L10.248 13.637l-1.566-1.563 5.642-5.644zM0.667 1.133h2.266v13.734H0.667z"></path><path d="M0.667 0.667h6.4v2.266H0.667z m0 12.266h6.4v2.267H0.667z"></path></g><g id="SvgjsG1213"><path d="M5.98 0h4.04v10.94H5.98z m0 12.78h4.04V16H5.98z"></path></g><g id="SvgjsG1215"><use xlink:href="#SvgjsG1211" transform="translate(0, 0) scale(1.5)" fill="#0f457b"></use><use xlink:href="#SvgjsG1212" transform="translate(0, 31.5) scale(1.5)" fill="#0f457b"></use><use xlink:href="#SvgjsG1213" transform="translate(0, 63) scale(1.5)" fill="#0f457b"></use><use xlink:href="#SvgjsG1214" transform="translate(0, 94.5) scale(1.5)" fill="#0f457b"></use><use xlink:href="#SvgjsG1213" transform="translate(0, 126) scale(1.5)" fill="#0f457b"></use><use xlink:href="#SvgjsG1214" transform="translate(0, 157.5) scale(1.5)" fill="#0f457b"></use><use xlink:href="#SvgjsG1212" transform="translate(0, 189) scale(1.5)" fill="#0f457b"></use><use xlink:href="#SvgjsG1213" transform="translate(0, 220.5) scale(1.5)" fill="#0f457b"></use><use xlink:href="#SvgjsG1213" transform="translate(0, 252) scale(1.5)" fill="#0f457b"></use><use xlink:href="#SvgjsG1214" transform="translate(0, 283.5) scale(1.5)" fill="#0f457b"></use><use xlink:href="#SvgjsG1212" transform="translate(31.5, 0) scale(1.5)" fill="#0f457b"></use><use xlink:href="#SvgjsG1212" transform="translate(31.5, 31.5) scale(1.5)" fill="#0f457b"></use><use xlink:href="#SvgjsG1211" transform="translate(31.5, 63) scale(1.5)" fill="#0f457b"></use><use xlink:href="#SvgjsG1212" transform="translate(31.5, 94.5) scale(1.5)" fill="#0f457b"></use><use xlink:href="#SvgjsG1211" transform="translate(31.5, 126) scale(1.5)" fill="#0f457b"></use><use xlink:href="#SvgjsG1214" transform="translate(31.5, 157.5) scale(1.5)" fill="#0f457b"></use><use xlink:href="#SvgjsG1211" transform="translate(31.5, 189) scale(1.5)" fill="#0f457b"></use><use xlink:href="#SvgjsG1212" transform="translate(31.5, 220.5) scale(1.5)" fill="#0f457b"></use><use xlink:href="#SvgjsG1214" transform="translate(31.5, 252) scale(1.5)" fill="#0f457b"></use><use xlink:href="#SvgjsG1212" transform="translate(31.5, 283.5) scale(1.5)" fill="#0f457b"></use><use xlink:href="#SvgjsG1211" transform="translate(63, 0) scale(1.5)" fill="#0f457b"></use><use xlink:href="#SvgjsG1212" transform="translate(63, 31.5) scale(1.5)" fill="#0f457b"></use><use xlink:href="#SvgjsG1212" transform="translate(63, 63) scale(1.5)" fill="#0f457b"></use><use xlink:href="#SvgjsG1211" transform="translate(63, 94.5) scale(1.5)" fill="#0f457b"></use><use xlink:href="#SvgjsG1214" transform="translate(63, 126) scale(1.5)" fill="#0f457b"></use><use xlink:href="#SvgjsG1211" transform="translate(63, 157.5) scale(1.5)" fill="#0f457b"></use><use xlink:href="#SvgjsG1212" transform="translate(63, 189) scale(1.5)" fill="#0f457b"></use><use xlink:href="#SvgjsG1214" transform="translate(63, 220.5) scale(1.5)" fill="#0f457b"></use><use xlink:href="#SvgjsG1211" transform="translate(63, 252) scale(1.5)" fill="#0f457b"></use><use xlink:href="#SvgjsG1212" transform="translate(63, 283.5) scale(1.5)" fill="#0f457b"></use><use xlink:href="#SvgjsG1212" transform="translate(94.5, 0) scale(1.5)" fill="#0f457b"></use><use xlink:href="#SvgjsG1211" transform="translate(94.5, 31.5) scale(1.5)" fill="#0f457b"></use><use xlink:href="#SvgjsG1213" transform="translate(94.5, 63) scale(1.5)" fill="#0f457b"></use><use xlink:href="#SvgjsG1213" transform="translate(94.5, 94.5) scale(1.5)" fill="#0f457b"></use><use xlink:href="#SvgjsG1211" transform="translate(94.5, 126) scale(1.5)" fill="#0f457b"></use><use xlink:href="#SvgjsG1211" transform="translate(94.5, 157.5) scale(1.5)" fill="#0f457b"></use><use xlink:href="#SvgjsG1212" transform="translate(94.5, 189) scale(1.5)" fill="#0f457b"></use><use xlink:href="#SvgjsG1213" transform="translate(94.5, 220.5) scale(1.5)" fill="#0f457b"></use><use xlink:href="#SvgjsG1212" transform="translate(94.5, 252) scale(1.5)" fill="#0f457b"></use><use xlink:href="#SvgjsG1211" transform="translate(94.5, 283.5) scale(1.5)" fill="#0f457b"></use><use xlink:href="#SvgjsG1212" transform="translate(126, 0) scale(1.5)" fill="#0f457b"></use><use xlink:href="#SvgjsG1214" transform="translate(126, 31.5) scale(1.5)" fill="#0f457b"></use><use xlink:href="#SvgjsG1212" transform="translate(126, 63) scale(1.5)" fill="#0f457b"></use><use xlink:href="#SvgjsG1211" transform="translate(126, 94.5) scale(1.5)" fill="#0f457b"></use><use xlink:href="#SvgjsG1212" transform="translate(126, 126) scale(1.5)" fill="#0f457b"></use><use xlink:href="#SvgjsG1211" transform="translate(126, 157.5) scale(1.5)" fill="#0f457b"></use><use xlink:href="#SvgjsG1212" transform="translate(126, 189) scale(1.5)" fill="#0f457b"></use><use xlink:href="#SvgjsG1214" transform="translate(126, 220.5) scale(1.5)" fill="#0f457b"></use><use xlink:href="#SvgjsG1213" transform="translate(126, 252) scale(1.5)" fill="#0f457b"></use><use xlink:href="#SvgjsG1212" transform="translate(126, 283.5) scale(1.5)" fill="#0f457b"></use><use xlink:href="#SvgjsG1214" transform="translate(157.5, 0) scale(1.5)" fill="#0f457b"></use><use xlink:href="#SvgjsG1212" transform="translate(157.5, 31.5) scale(1.5)" fill="#0f457b"></use><use xlink:href="#SvgjsG1212" transform="translate(157.5, 63) scale(1.5)" fill="#0f457b"></use><use xlink:href="#SvgjsG1214" transform="translate(157.5, 94.5) scale(1.5)" fill="#0f457b"></use><use xlink:href="#SvgjsG1214" transform="translate(157.5, 126) scale(1.5)" fill="#0f457b"></use><use xlink:href="#SvgjsG1212" transform="translate(157.5, 157.5) scale(1.5)" fill="#0f457b"></use><use xlink:href="#SvgjsG1212" transform="translate(157.5, 189) scale(1.5)" fill="#0f457b"></use><use xlink:href="#SvgjsG1211" transform="translate(157.5, 220.5) scale(1.5)" fill="#0f457b"></use><use xlink:href="#SvgjsG1211" transform="translate(157.5, 252) scale(1.5)" fill="#0f457b"></use><use xlink:href="#SvgjsG1212" transform="translate(157.5, 283.5) scale(1.5)" fill="#0f457b"></use><use xlink:href="#SvgjsG1213" transform="translate(189, 0) scale(1.5)" fill="#0f457b"></use><use xlink:href="#SvgjsG1211" transform="translate(189, 31.5) scale(1.5)" fill="#0f457b"></use><use xlink:href="#SvgjsG1214" transform="translate(189, 63) scale(1.5)" fill="#0f457b"></use><use xlink:href="#SvgjsG1211" transform="translate(189, 94.5) scale(1.5)" fill="#0f457b"></use><use xlink:href="#SvgjsG1212" transform="translate(189, 126) scale(1.5)" fill="#0f457b"></use><use xlink:href="#SvgjsG1214" transform="translate(189, 157.5) scale(1.5)" fill="#0f457b"></use><use xlink:href="#SvgjsG1214" transform="translate(189, 189) scale(1.5)" fill="#0f457b"></use><use xlink:href="#SvgjsG1211" transform="translate(189, 220.5) scale(1.5)" fill="#0f457b"></use><use xlink:href="#SvgjsG1213" transform="translate(189, 252) scale(1.5)" fill="#0f457b"></use><use xlink:href="#SvgjsG1214" transform="translate(189, 283.5) scale(1.5)" fill="#0f457b"></use><use xlink:href="#SvgjsG1212" transform="translate(220.5, 0) scale(1.5)" fill="#0f457b"></use><use xlink:href="#SvgjsG1213" transform="translate(220.5, 31.5) scale(1.5)" fill="#0f457b"></use><use xlink:href="#SvgjsG1214" transform="translate(220.5, 63) scale(1.5)" fill="#0f457b"></use><use xlink:href="#SvgjsG1212" transform="translate(220.5, 94.5) scale(1.5)" fill="#0f457b"></use><use xlink:href="#SvgjsG1213" transform="translate(220.5, 126) scale(1.5)" fill="#0f457b"></use><use xlink:href="#SvgjsG1211" transform="translate(220.5, 157.5) scale(1.5)" fill="#0f457b"></use><use xlink:href="#SvgjsG1212" transform="translate(220.5, 189) scale(1.5)" fill="#0f457b"></use><use xlink:href="#SvgjsG1213" transform="translate(220.5, 220.5) scale(1.5)" fill="#0f457b"></use><use xlink:href="#SvgjsG1214" transform="translate(220.5, 252) scale(1.5)" fill="#0f457b"></use><use xlink:href="#SvgjsG1211" transform="translate(220.5, 283.5) scale(1.5)" fill="#0f457b"></use><use xlink:href="#SvgjsG1213" transform="translate(252, 0) scale(1.5)" fill="#0f457b"></use><use xlink:href="#SvgjsG1213" transform="translate(252, 31.5) scale(1.5)" fill="#0f457b"></use><use xlink:href="#SvgjsG1212" transform="translate(252, 63) scale(1.5)" fill="#0f457b"></use><use xlink:href="#SvgjsG1211" transform="translate(252, 94.5) scale(1.5)" fill="#0f457b"></use><use xlink:href="#SvgjsG1213" transform="translate(252, 126) scale(1.5)" fill="#0f457b"></use><use xlink:href="#SvgjsG1214" transform="translate(252, 157.5) scale(1.5)" fill="#0f457b"></use><use xlink:href="#SvgjsG1214" transform="translate(252, 189) scale(1.5)" fill="#0f457b"></use><use xlink:href="#SvgjsG1211" transform="translate(252, 220.5) scale(1.5)" fill="#0f457b"></use><use xlink:href="#SvgjsG1212" transform="translate(252, 252) scale(1.5)" fill="#0f457b"></use><use xlink:href="#SvgjsG1214" transform="translate(252, 283.5) scale(1.5)" fill="#0f457b"></use><use xlink:href="#SvgjsG1211" transform="translate(283.5, 0) scale(1.5)" fill="#0f457b"></use><use xlink:href="#SvgjsG1211" transform="translate(283.5, 31.5) scale(1.5)" fill="#0f457b"></use><use xlink:href="#SvgjsG1214" transform="translate(283.5, 63) scale(1.5)" fill="#0f457b"></use><use xlink:href="#SvgjsG1214" transform="translate(283.5, 94.5) scale(1.5)" fill="#0f457b"></use><use xlink:href="#SvgjsG1212" transform="translate(283.5, 126) scale(1.5)" fill="#0f457b"></use><use xlink:href="#SvgjsG1213" transform="translate(283.5, 157.5) scale(1.5)" fill="#0f457b"></use><use xlink:href="#SvgjsG1214" transform="translate(283.5, 189) scale(1.5)" fill="#0f457b"></use><use xlink:href="#SvgjsG1213" transform="translate(283.5, 220.5) scale(1.5)" fill="#0f457b"></use><use xlink:href="#SvgjsG1214" transform="translate(283.5, 252) scale(1.5)" fill="#0f457b"></use><use xlink:href="#SvgjsG1214" transform="translate(283.5, 283.5) scale(1.5)" fill="#0f457b"></use></g></defs></svg>